<mxfile host="app.diagrams.net" modified="2023-11-23T21:22:01.613Z" agent="Mozilla/5.0 (Windows NT 10.0; Win64; x64) AppleWebKit/537.36 (KHTML, like Gecko) Chrome/119.0.0.0 Safari/537.36" etag="9TErG4-CfQiL1SWcsSZ2" version="22.1.3" type="device">
  <diagram id="C5RBs43oDa-KdzZeNtuy" name="Page-1">
    <mxGraphModel dx="829" dy="1866" grid="1" gridSize="10" guides="1" tooltips="1" connect="1" arrows="1" fold="1" page="1" pageScale="1" pageWidth="827" pageHeight="1169" math="0" shadow="0">
      <root>
        <mxCell id="WIyWlLk6GJQsqaUBKTNV-0" />
        <mxCell id="WIyWlLk6GJQsqaUBKTNV-1" parent="WIyWlLk6GJQsqaUBKTNV-0" />
        <mxCell id="kNCaPJdA75GjF8ZYcJyq-0" value="&lt;p style=&quot;margin:0px;margin-top:4px;text-align:center;&quot;&gt;&lt;b&gt;Cliente&lt;/b&gt;&lt;/p&gt;&lt;hr size=&quot;1&quot;&gt;&lt;p style=&quot;margin: 0px 0px 0px 4px; line-height: 150%;&quot;&gt;numIdentificacion&lt;/p&gt;&lt;p style=&quot;margin: 0px 0px 0px 4px; line-height: 150%;&quot;&gt;tipoIdentificacion&lt;/p&gt;&lt;p style=&quot;margin: 0px 0px 0px 4px; line-height: 150%;&quot;&gt;nombres&lt;/p&gt;&lt;p style=&quot;margin: 0px 0px 0px 4px; line-height: 150%;&quot;&gt;apellidos&lt;/p&gt;&lt;hr size=&quot;1&quot;&gt;&lt;p style=&quot;margin:0px;margin-left:4px;&quot;&gt;&lt;br&gt;&lt;/p&gt;" style="verticalAlign=top;align=left;overflow=fill;fontSize=12;fontFamily=Helvetica;html=1;whiteSpace=wrap;" parent="WIyWlLk6GJQsqaUBKTNV-1" vertex="1">
          <mxGeometry x="40" y="240" width="160" height="120" as="geometry" />
        </mxCell>
        <mxCell id="XZi6HHMwjH49y-VhssPX-24" style="edgeStyle=orthogonalEdgeStyle;rounded=0;orthogonalLoop=1;jettySize=auto;html=1;exitX=0.75;exitY=0;exitDx=0;exitDy=0;entryX=0.5;entryY=1;entryDx=0;entryDy=0;dashed=1;dashPattern=8 8;" edge="1" parent="WIyWlLk6GJQsqaUBKTNV-1" source="kNCaPJdA75GjF8ZYcJyq-1" target="XZi6HHMwjH49y-VhssPX-23">
          <mxGeometry relative="1" as="geometry" />
        </mxCell>
        <mxCell id="kNCaPJdA75GjF8ZYcJyq-1" value="&lt;p style=&quot;margin:0px;margin-top:4px;text-align:center;&quot;&gt;&lt;b&gt;Venta&lt;/b&gt;&lt;/p&gt;&lt;hr size=&quot;1&quot;&gt;&lt;p style=&quot;margin: 0px 0px 0px 4px; line-height: 150%;&quot;&gt;idVenta&lt;/p&gt;&lt;p style=&quot;margin: 0px 0px 0px 4px; line-height: 150%;&quot;&gt;fechaVenta&lt;/p&gt;&lt;p style=&quot;margin: 0px 0px 0px 4px; line-height: 150%;&quot;&gt;totalVenta&lt;/p&gt;&lt;hr size=&quot;1&quot;&gt;&lt;p style=&quot;margin:0px;margin-left:4px;&quot;&gt;&lt;br&gt;&lt;/p&gt;" style="verticalAlign=top;align=left;overflow=fill;fontSize=12;fontFamily=Helvetica;html=1;whiteSpace=wrap;" parent="WIyWlLk6GJQsqaUBKTNV-1" vertex="1">
          <mxGeometry x="280" y="240" width="160" height="160" as="geometry" />
        </mxCell>
        <mxCell id="Ck3OJxmytHhcV2q8WUNJ-1" value="&lt;p style=&quot;margin:0px;margin-top:4px;text-align:center;&quot;&gt;&lt;b&gt;Empleado&lt;/b&gt;&lt;/p&gt;&lt;hr size=&quot;1&quot;&gt;&lt;p style=&quot;margin: 0px 0px 0px 4px; line-height: 150%;&quot;&gt;numIdentificacion&lt;/p&gt;&lt;p style=&quot;margin: 0px 0px 0px 4px; line-height: 150%;&quot;&gt;nombres&lt;/p&gt;&lt;p style=&quot;margin: 0px 0px 0px 4px; line-height: 150%;&quot;&gt;apellidos&lt;/p&gt;&lt;p style=&quot;margin: 0px 0px 0px 4px; line-height: 150%;&quot;&gt;rol&lt;/p&gt;&lt;p style=&quot;margin: 0px 0px 0px 4px; line-height: 150%;&quot;&gt;fechaNacimiento&lt;/p&gt;&lt;p style=&quot;margin: 0px 0px 0px 4px; line-height: 150%;&quot;&gt;telefono&lt;/p&gt;&lt;hr size=&quot;1&quot;&gt;&lt;p style=&quot;margin:0px;margin-left:4px;&quot;&gt;&lt;br&gt;&lt;/p&gt;" style="verticalAlign=top;align=left;overflow=fill;fontSize=12;fontFamily=Helvetica;html=1;whiteSpace=wrap;" parent="WIyWlLk6GJQsqaUBKTNV-1" vertex="1">
          <mxGeometry x="520" y="240" width="160" height="170" as="geometry" />
        </mxCell>
        <mxCell id="Ck3OJxmytHhcV2q8WUNJ-2" value="&lt;p style=&quot;margin:0px;margin-top:4px;text-align:center;&quot;&gt;&lt;b&gt;Producto&lt;/b&gt;&lt;/p&gt;&lt;hr size=&quot;1&quot;&gt;&lt;p style=&quot;margin: 0px 0px 0px 4px; line-height: 150%;&quot;&gt;idProducto&lt;/p&gt;&lt;p style=&quot;margin: 0px 0px 0px 4px; line-height: 150%;&quot;&gt;nombre&lt;/p&gt;&lt;p style=&quot;margin: 0px 0px 0px 4px; line-height: 150%;&quot;&gt;marca&lt;/p&gt;&lt;p style=&quot;margin: 0px 0px 0px 4px; line-height: 150%;&quot;&gt;fechaVencimiento&lt;/p&gt;&lt;p style=&quot;margin: 0px 0px 0px 4px; line-height: 150%;&quot;&gt;cantidad&lt;/p&gt;&lt;p style=&quot;margin: 0px 0px 0px 4px; line-height: 150%;&quot;&gt;precio&lt;/p&gt;&lt;hr size=&quot;1&quot;&gt;&lt;p style=&quot;margin:0px;margin-left:4px;&quot;&gt;&lt;br&gt;&lt;/p&gt;" style="verticalAlign=top;align=left;overflow=fill;fontSize=12;fontFamily=Helvetica;html=1;whiteSpace=wrap;" parent="WIyWlLk6GJQsqaUBKTNV-1" vertex="1">
          <mxGeometry x="760" y="240" width="160" height="150" as="geometry" />
        </mxCell>
        <mxCell id="XZi6HHMwjH49y-VhssPX-19" style="edgeStyle=orthogonalEdgeStyle;rounded=0;orthogonalLoop=1;jettySize=auto;html=1;exitX=0;exitY=1;exitDx=0;exitDy=0;entryX=1;entryY=1;entryDx=0;entryDy=0;endArrow=none;endFill=0;" edge="1" parent="WIyWlLk6GJQsqaUBKTNV-1" source="Ck3OJxmytHhcV2q8WUNJ-3" target="Ck3OJxmytHhcV2q8WUNJ-1">
          <mxGeometry relative="1" as="geometry">
            <Array as="points">
              <mxPoint x="680" y="430" />
            </Array>
          </mxGeometry>
        </mxCell>
        <mxCell id="XZi6HHMwjH49y-VhssPX-26" style="edgeStyle=orthogonalEdgeStyle;rounded=0;orthogonalLoop=1;jettySize=auto;html=1;exitX=0.75;exitY=0;exitDx=0;exitDy=0;entryX=0.5;entryY=1;entryDx=0;entryDy=0;dashed=1;dashPattern=8 8;" edge="1" parent="WIyWlLk6GJQsqaUBKTNV-1" source="Ck3OJxmytHhcV2q8WUNJ-3" target="XZi6HHMwjH49y-VhssPX-25">
          <mxGeometry relative="1" as="geometry" />
        </mxCell>
        <mxCell id="Ck3OJxmytHhcV2q8WUNJ-3" value="&lt;p style=&quot;margin:0px;margin-top:4px;text-align:center;&quot;&gt;&lt;b&gt;CompraInsumos&lt;/b&gt;&lt;/p&gt;&lt;hr size=&quot;1&quot;&gt;&lt;p style=&quot;margin: 0px 0px 0px 4px; line-height: 150%;&quot;&gt;idCompra&lt;/p&gt;&lt;p style=&quot;margin: 0px 0px 0px 4px; line-height: 150%;&quot;&gt;fechaCompra&lt;/p&gt;&lt;p style=&quot;margin: 0px 0px 0px 4px; line-height: 150%;&quot;&gt;totalventa&lt;/p&gt;&lt;hr size=&quot;1&quot;&gt;&lt;p style=&quot;margin:0px;margin-left:4px;&quot;&gt;&lt;br&gt;&lt;/p&gt;" style="verticalAlign=top;align=left;overflow=fill;fontSize=12;fontFamily=Helvetica;html=1;whiteSpace=wrap;" parent="WIyWlLk6GJQsqaUBKTNV-1" vertex="1">
          <mxGeometry x="1038" y="240" width="160" height="190" as="geometry" />
        </mxCell>
        <mxCell id="Ck3OJxmytHhcV2q8WUNJ-4" value="&lt;p style=&quot;margin:0px;margin-top:4px;text-align:center;&quot;&gt;&lt;b&gt;Proveedor&lt;/b&gt;&lt;/p&gt;&lt;hr size=&quot;1&quot;&gt;&lt;p style=&quot;margin: 0px 0px 0px 4px; line-height: 150%;&quot;&gt;numIdentificacion&lt;/p&gt;&lt;p style=&quot;margin: 0px 0px 0px 4px; line-height: 150%;&quot;&gt;nombre&lt;/p&gt;&lt;p style=&quot;margin: 0px 0px 0px 4px; line-height: 150%;&quot;&gt;telefono&lt;/p&gt;&lt;hr size=&quot;1&quot;&gt;&lt;p style=&quot;margin:0px;margin-left:4px;&quot;&gt;&lt;br&gt;&lt;/p&gt;" style="verticalAlign=top;align=left;overflow=fill;fontSize=12;fontFamily=Helvetica;html=1;whiteSpace=wrap;" parent="WIyWlLk6GJQsqaUBKTNV-1" vertex="1">
          <mxGeometry x="1320" y="238" width="160" height="120" as="geometry" />
        </mxCell>
        <mxCell id="Ck3OJxmytHhcV2q8WUNJ-5" value="&lt;p style=&quot;margin:0px;margin-top:4px;text-align:center;&quot;&gt;&lt;b&gt;DetalleCompra&lt;/b&gt;&lt;/p&gt;&lt;hr size=&quot;1&quot;&gt;&lt;p style=&quot;margin: 0px 0px 0px 4px; line-height: 150%;&quot;&gt;idDetalle&lt;/p&gt;&lt;p style=&quot;margin: 0px 0px 0px 4px; line-height: 150%;&quot;&gt;cantidad&lt;/p&gt;&lt;hr size=&quot;1&quot;&gt;&lt;p style=&quot;margin:0px;margin-left:4px;&quot;&gt;&lt;br&gt;&lt;/p&gt;" style="verticalAlign=top;align=left;overflow=fill;fontSize=12;fontFamily=Helvetica;html=1;whiteSpace=wrap;" parent="WIyWlLk6GJQsqaUBKTNV-1" vertex="1">
          <mxGeometry x="280" y="520" width="160" height="100" as="geometry" />
        </mxCell>
        <mxCell id="Ck3OJxmytHhcV2q8WUNJ-8" value="" style="endArrow=diamondThin;endFill=1;endSize=24;html=1;rounded=0;entryX=0.5;entryY=1;entryDx=0;entryDy=0;exitX=0.5;exitY=0;exitDx=0;exitDy=0;" parent="WIyWlLk6GJQsqaUBKTNV-1" source="Ck3OJxmytHhcV2q8WUNJ-5" target="kNCaPJdA75GjF8ZYcJyq-1" edge="1">
          <mxGeometry width="160" relative="1" as="geometry">
            <mxPoint x="410" y="490" as="sourcePoint" />
            <mxPoint x="570" y="490" as="targetPoint" />
          </mxGeometry>
        </mxCell>
        <mxCell id="Ck3OJxmytHhcV2q8WUNJ-9" value="" style="endArrow=none;endFill=0;endSize=24;html=1;rounded=1;entryX=0.5;entryY=1;entryDx=0;entryDy=0;exitX=0.25;exitY=1;exitDx=0;exitDy=0;edgeStyle=orthogonalEdgeStyle;" parent="WIyWlLk6GJQsqaUBKTNV-1" source="kNCaPJdA75GjF8ZYcJyq-1" edge="1">
          <mxGeometry width="160" relative="1" as="geometry">
            <mxPoint x="119.5" y="550" as="sourcePoint" />
            <mxPoint x="119.5" y="360" as="targetPoint" />
            <Array as="points">
              <mxPoint x="320" y="400" />
              <mxPoint x="120" y="400" />
            </Array>
          </mxGeometry>
        </mxCell>
        <mxCell id="Ck3OJxmytHhcV2q8WUNJ-10" value="&lt;font style=&quot;font-size: 24px;&quot;&gt;*&lt;/font&gt;" style="text;html=1;align=center;verticalAlign=middle;resizable=0;points=[];autosize=1;strokeColor=none;fillColor=none;" parent="WIyWlLk6GJQsqaUBKTNV-1" vertex="1">
          <mxGeometry x="250" y="370" width="30" height="40" as="geometry" />
        </mxCell>
        <mxCell id="Ck3OJxmytHhcV2q8WUNJ-11" value="1" style="text;html=1;align=center;verticalAlign=middle;resizable=0;points=[];autosize=1;strokeColor=none;fillColor=none;" parent="WIyWlLk6GJQsqaUBKTNV-1" vertex="1">
          <mxGeometry x="115" y="358" width="30" height="30" as="geometry" />
        </mxCell>
        <mxCell id="Ck3OJxmytHhcV2q8WUNJ-12" value="" style="endArrow=none;endFill=0;endSize=24;html=1;rounded=1;exitX=0.153;exitY=-0.06;exitDx=0;exitDy=0;edgeStyle=orthogonalEdgeStyle;entryX=1;entryY=1;entryDx=0;entryDy=0;exitPerimeter=0;" parent="WIyWlLk6GJQsqaUBKTNV-1" source="Ck3OJxmytHhcV2q8WUNJ-14" target="kNCaPJdA75GjF8ZYcJyq-1" edge="1">
          <mxGeometry width="160" relative="1" as="geometry">
            <mxPoint x="600.5" y="410" as="sourcePoint" />
            <mxPoint x="400" y="440" as="targetPoint" />
            <Array as="points">
              <mxPoint x="620" y="440" />
              <mxPoint x="500" y="440" />
              <mxPoint x="500" y="400" />
            </Array>
          </mxGeometry>
        </mxCell>
        <mxCell id="Ck3OJxmytHhcV2q8WUNJ-13" value="&lt;font style=&quot;font-size: 24px;&quot;&gt;*&lt;/font&gt;" style="text;html=1;align=center;verticalAlign=middle;resizable=0;points=[];autosize=1;strokeColor=none;fillColor=none;" parent="WIyWlLk6GJQsqaUBKTNV-1" vertex="1">
          <mxGeometry x="440" y="378" width="30" height="40" as="geometry" />
        </mxCell>
        <mxCell id="Ck3OJxmytHhcV2q8WUNJ-14" value="&lt;font style=&quot;font-size: 12px;&quot;&gt;1&lt;/font&gt;" style="text;html=1;align=center;verticalAlign=middle;resizable=0;points=[];autosize=1;strokeColor=none;fillColor=none;" parent="WIyWlLk6GJQsqaUBKTNV-1" vertex="1">
          <mxGeometry x="615" y="410" width="30" height="30" as="geometry" />
        </mxCell>
        <mxCell id="Ck3OJxmytHhcV2q8WUNJ-15" value="&lt;font style=&quot;font-size: 24px;&quot;&gt;*&lt;/font&gt;" style="text;html=1;align=center;verticalAlign=middle;resizable=0;points=[];autosize=1;strokeColor=none;fillColor=none;" parent="WIyWlLk6GJQsqaUBKTNV-1" vertex="1">
          <mxGeometry x="360" y="490" width="30" height="40" as="geometry" />
        </mxCell>
        <mxCell id="Ck3OJxmytHhcV2q8WUNJ-16" value="" style="endArrow=none;endFill=0;endSize=24;html=1;rounded=1;exitX=0.118;exitY=1.009;exitDx=0;exitDy=0;edgeStyle=orthogonalEdgeStyle;entryX=1;entryY=0.5;entryDx=0;entryDy=0;exitPerimeter=0;" parent="WIyWlLk6GJQsqaUBKTNV-1" source="Ck3OJxmytHhcV2q8WUNJ-2" target="Ck3OJxmytHhcV2q8WUNJ-5" edge="1">
          <mxGeometry width="160" relative="1" as="geometry">
            <mxPoint x="789.5" y="560" as="sourcePoint" />
            <mxPoint x="590" y="480" as="targetPoint" />
            <Array as="points">
              <mxPoint x="779" y="570" />
            </Array>
          </mxGeometry>
        </mxCell>
        <mxCell id="Ck3OJxmytHhcV2q8WUNJ-17" value="&lt;font style=&quot;font-size: 24px;&quot;&gt;*&lt;/font&gt;" style="text;html=1;align=center;verticalAlign=middle;resizable=0;points=[];autosize=1;strokeColor=none;fillColor=none;" parent="WIyWlLk6GJQsqaUBKTNV-1" vertex="1">
          <mxGeometry x="440" y="540" width="30" height="40" as="geometry" />
        </mxCell>
        <mxCell id="Ck3OJxmytHhcV2q8WUNJ-18" value="&lt;font style=&quot;font-size: 12px;&quot;&gt;1&lt;/font&gt;" style="text;html=1;align=center;verticalAlign=middle;resizable=0;points=[];autosize=1;strokeColor=none;fillColor=none;" parent="WIyWlLk6GJQsqaUBKTNV-1" vertex="1">
          <mxGeometry x="780" y="390" width="30" height="30" as="geometry" />
        </mxCell>
        <mxCell id="Ck3OJxmytHhcV2q8WUNJ-21" value="&lt;font style=&quot;font-size: 12px;&quot;&gt;1&lt;/font&gt;" style="text;html=1;align=center;verticalAlign=middle;resizable=0;points=[];autosize=1;strokeColor=none;fillColor=none;" parent="WIyWlLk6GJQsqaUBKTNV-1" vertex="1">
          <mxGeometry x="1074" y="430" width="30" height="30" as="geometry" />
        </mxCell>
        <mxCell id="Ck3OJxmytHhcV2q8WUNJ-22" value="" style="endArrow=none;endFill=0;endSize=24;html=1;rounded=1;exitX=0.75;exitY=1;exitDx=0;exitDy=0;edgeStyle=orthogonalEdgeStyle;entryX=1;entryY=1;entryDx=0;entryDy=0;" parent="WIyWlLk6GJQsqaUBKTNV-1" source="Ck3OJxmytHhcV2q8WUNJ-4" target="Ck3OJxmytHhcV2q8WUNJ-3" edge="1">
          <mxGeometry width="160" relative="1" as="geometry">
            <mxPoint x="1280" y="290" as="sourcePoint" />
            <mxPoint x="1120" y="340" as="targetPoint" />
            <Array as="points">
              <mxPoint x="1440" y="400" />
              <mxPoint x="1260" y="400" />
              <mxPoint x="1260" y="430" />
            </Array>
          </mxGeometry>
        </mxCell>
        <mxCell id="Ck3OJxmytHhcV2q8WUNJ-23" value="&lt;font style=&quot;font-size: 24px;&quot;&gt;*&lt;/font&gt;" style="text;html=1;align=center;verticalAlign=middle;resizable=0;points=[];autosize=1;strokeColor=none;fillColor=none;" parent="WIyWlLk6GJQsqaUBKTNV-1" vertex="1">
          <mxGeometry x="1190" y="400" width="30" height="40" as="geometry" />
        </mxCell>
        <mxCell id="Ck3OJxmytHhcV2q8WUNJ-24" value="&lt;font style=&quot;font-size: 12px;&quot;&gt;1&lt;/font&gt;" style="text;html=1;align=center;verticalAlign=middle;resizable=0;points=[];autosize=1;strokeColor=none;fillColor=none;" parent="WIyWlLk6GJQsqaUBKTNV-1" vertex="1">
          <mxGeometry x="1440" y="358" width="30" height="30" as="geometry" />
        </mxCell>
        <mxCell id="Ck3OJxmytHhcV2q8WUNJ-25" value="&lt;p style=&quot;margin:0px;margin-top:4px;text-align:center;&quot;&gt;&lt;b&gt;Supermercado&lt;/b&gt;&lt;/p&gt;&lt;hr size=&quot;1&quot;&gt;&lt;p style=&quot;margin: 0px 0px 0px 4px; line-height: 150%;&quot;&gt;nit&lt;/p&gt;&lt;p style=&quot;margin: 0px 0px 0px 4px; line-height: 150%;&quot;&gt;nombre&lt;/p&gt;&lt;hr size=&quot;1&quot;&gt;&lt;p style=&quot;margin:0px;margin-left:4px;&quot;&gt;crearCliente()&lt;/p&gt;&lt;p style=&quot;margin:0px;margin-left:4px;&quot;&gt;obtenerClientes()&lt;/p&gt;&lt;p style=&quot;margin:0px;margin-left:4px;&quot;&gt;obtenerCliente()&lt;br&gt;&lt;/p&gt;&lt;p style=&quot;margin:0px;margin-left:4px;&quot;&gt;validarExistenciaCliente()&lt;br&gt;&lt;/p&gt;&lt;p style=&quot;margin:0px;margin-left:4px;&quot;&gt;editarCliente()&lt;/p&gt;&lt;p style=&quot;margin:0px;margin-left:4px;&quot;&gt;eliminarCliente()&lt;/p&gt;&lt;p style=&quot;border-color: var(--border-color); margin: 0px 0px 0px 4px;&quot;&gt;crearEmpleado()&lt;/p&gt;&lt;p style=&quot;border-color: var(--border-color); margin: 0px 0px 0px 4px;&quot;&gt;obtenerEmpleados()&lt;/p&gt;&lt;p style=&quot;border-color: var(--border-color); margin: 0px 0px 0px 4px;&quot;&gt;obtenerEmpleado()&lt;br style=&quot;border-color: var(--border-color);&quot;&gt;&lt;/p&gt;&lt;p style=&quot;border-color: var(--border-color); margin: 0px 0px 0px 4px;&quot;&gt;validarExistenciaEmpleado()&lt;br style=&quot;border-color: var(--border-color);&quot;&gt;&lt;/p&gt;&lt;p style=&quot;border-color: var(--border-color); margin: 0px 0px 0px 4px;&quot;&gt;editarEmpleado()&lt;/p&gt;&lt;p style=&quot;border-color: var(--border-color); margin: 0px 0px 0px 4px;&quot;&gt;eliminarEmpleado()&lt;/p&gt;&lt;p style=&quot;border-color: var(--border-color); margin: 0px 0px 0px 4px;&quot;&gt;crearProducto()&lt;/p&gt;&lt;p style=&quot;border-color: var(--border-color); margin: 0px 0px 0px 4px;&quot;&gt;obtenerProductos()&lt;/p&gt;&lt;p style=&quot;border-color: var(--border-color); margin: 0px 0px 0px 4px;&quot;&gt;obtenerProducto()&lt;br style=&quot;border-color: var(--border-color);&quot;&gt;&lt;/p&gt;&lt;p style=&quot;border-color: var(--border-color); margin: 0px 0px 0px 4px;&quot;&gt;validarExistenciaProducto()&lt;br style=&quot;border-color: var(--border-color);&quot;&gt;&lt;/p&gt;&lt;p style=&quot;border-color: var(--border-color); margin: 0px 0px 0px 4px;&quot;&gt;obtenerMayorIdProducto()&lt;br&gt;&lt;/p&gt;&lt;p style=&quot;border-color: var(--border-color); margin: 0px 0px 0px 4px;&quot;&gt;editarProducto()&lt;/p&gt;&lt;p style=&quot;border-color: var(--border-color); margin: 0px 0px 0px 4px;&quot;&gt;eliminarProducto()&lt;/p&gt;&lt;p style=&quot;border-color: var(--border-color); margin: 0px 0px 0px 4px;&quot;&gt;crearProveedor()&lt;/p&gt;&lt;p style=&quot;border-color: var(--border-color); margin: 0px 0px 0px 4px;&quot;&gt;obtenerProveedores()&lt;/p&gt;&lt;p style=&quot;border-color: var(--border-color); margin: 0px 0px 0px 4px;&quot;&gt;obtenerProveedor()&lt;br style=&quot;border-color: var(--border-color);&quot;&gt;&lt;/p&gt;&lt;p style=&quot;border-color: var(--border-color); margin: 0px 0px 0px 4px;&quot;&gt;validarExistenciaProveedor()&lt;br style=&quot;border-color: var(--border-color);&quot;&gt;&lt;/p&gt;&lt;p style=&quot;border-color: var(--border-color); margin: 0px 0px 0px 4px;&quot;&gt;editarProveedor()&lt;/p&gt;&lt;p style=&quot;border-color: var(--border-color); margin: 0px 0px 0px 4px;&quot;&gt;eliminarProveedor()&lt;/p&gt;&lt;p style=&quot;border-color: var(--border-color); margin: 0px 0px 0px 4px;&quot;&gt;crearVenta()&lt;/p&gt;&lt;p style=&quot;border-color: var(--border-color); margin: 0px 0px 0px 4px;&quot;&gt;obtenerMayorIdVenta()&lt;br&gt;&lt;/p&gt;&lt;p style=&quot;border-color: var(--border-color); margin: 0px 0px 0px 4px;&quot;&gt;obtenerVentas()&lt;br&gt;&lt;/p&gt;&lt;p style=&quot;border-color: var(--border-color); margin: 0px 0px 0px 4px;&quot;&gt;obtenerVenta()&lt;br&gt;&lt;/p&gt;&lt;p style=&quot;border-color: var(--border-color); margin: 0px 0px 0px 4px;&quot;&gt;validarExistenciaVenta()&lt;br&gt;&lt;/p&gt;&lt;p style=&quot;border-color: var(--border-color); margin: 0px 0px 0px 4px;&quot;&gt;editarVenta()&lt;br&gt;&lt;/p&gt;&lt;p style=&quot;border-color: var(--border-color); margin: 0px 0px 0px 4px;&quot;&gt;eliminarVenta()&lt;br&gt;&lt;/p&gt;&lt;p style=&quot;border-color: var(--border-color); margin: 0px 0px 0px 4px;&quot;&gt;crearCompraInsumos()&lt;/p&gt;&lt;p style=&quot;border-color: var(--border-color); margin: 0px 0px 0px 4px;&quot;&gt;obtenerMayorIdCompra()&lt;br style=&quot;border-color: var(--border-color);&quot;&gt;&lt;/p&gt;&lt;p style=&quot;border-color: var(--border-color); margin: 0px 0px 0px 4px;&quot;&gt;obtenerComprasInsumos()&lt;br style=&quot;border-color: var(--border-color);&quot;&gt;&lt;/p&gt;&lt;p style=&quot;border-color: var(--border-color); margin: 0px 0px 0px 4px;&quot;&gt;obtenerCompraInsumos()&lt;br style=&quot;border-color: var(--border-color);&quot;&gt;&lt;/p&gt;&lt;p style=&quot;border-color: var(--border-color); margin: 0px 0px 0px 4px;&quot;&gt;validarExistenciaCompraInsumos()&lt;br style=&quot;border-color: var(--border-color);&quot;&gt;&lt;/p&gt;&lt;p style=&quot;border-color: var(--border-color); margin: 0px 0px 0px 4px;&quot;&gt;editarCompraInsumos()&lt;br style=&quot;border-color: var(--border-color);&quot;&gt;&lt;/p&gt;&lt;p style=&quot;border-color: var(--border-color); margin: 0px 0px 0px 4px;&quot;&gt;eliminarCompraInsumos()&lt;/p&gt;&lt;p style=&quot;border-color: var(--border-color); margin: 0px 0px 0px 4px;&quot;&gt;obtenerProductoMasCostoso()&lt;br&gt;&lt;/p&gt;&lt;p style=&quot;border-color: var(--border-color); margin: 0px 0px 0px 4px;&quot;&gt;obtenerProductoMayorStok()&lt;br&gt;&lt;/p&gt;&lt;p style=&quot;border-color: var(--border-color); margin: 0px 0px 0px 4px;&quot;&gt;obtenerValorTotalInventario()&lt;br&gt;&lt;/p&gt;&lt;p style=&quot;border-color: var(--border-color); margin: 0px 0px 0px 4px;&quot;&gt;obtenerClienteConC()&lt;br&gt;&lt;/p&gt;&lt;p style=&quot;border-color: var(--border-color); margin: 0px 0px 0px 4px;&quot;&gt;obtenerClienteIFinalApellidoN()&lt;br&gt;&lt;/p&gt;&lt;p style=&quot;border-color: var(--border-color); margin: 0px 0px 0px 4px;&quot;&gt;obtenerClienteCodigoPar()&lt;br&gt;&lt;/p&gt;&lt;p style=&quot;border-color: var(--border-color); margin: 0px 0px 0px 4px;&quot;&gt;obtenerEmpleadoEmpacador()&lt;br&gt;&lt;/p&gt;&lt;p style=&quot;border-color: var(--border-color); margin: 0px 0px 0px 4px;&quot;&gt;obtenerCantidadEmpleados()&lt;br&gt;&lt;/p&gt;&lt;p style=&quot;border-color: var(--border-color); margin: 0px 0px 0px 4px;&quot;&gt;obtenerSumatelefono()&lt;br&gt;&lt;/p&gt;&lt;p style=&quot;border-color: var(--border-color); margin: 0px 0px 0px 4px;&quot;&gt;obtenerCorreoAutogeneado()&lt;br&gt;&lt;/p&gt;&lt;p style=&quot;border-color: var(--border-color); margin: 0px 0px 0px 4px;&quot;&gt;validarRelacionClienteVenta()&lt;br&gt;&lt;/p&gt;&lt;p style=&quot;border-color: var(--border-color); margin: 0px 0px 0px 4px;&quot;&gt;validarRelacionProveedorCompra()&lt;br&gt;&lt;/p&gt;&lt;p style=&quot;border-color: var(--border-color); margin: 0px 0px 0px 4px;&quot;&gt;validarRelacionEmpleadoVentaCompra()&lt;br&gt;&lt;/p&gt;&lt;p style=&quot;border-color: var(--border-color); margin: 0px 0px 0px 4px;&quot;&gt;validarRelacionProductoVentaCompra()&lt;br&gt;&lt;/p&gt;&lt;p style=&quot;border-color: var(--border-color); margin: 0px 0px 0px 4px;&quot;&gt;totalProveedorCompra()&lt;br&gt;&lt;/p&gt;" style="verticalAlign=top;align=left;overflow=fill;fontSize=12;fontFamily=Helvetica;html=1;whiteSpace=wrap;" parent="WIyWlLk6GJQsqaUBKTNV-1" vertex="1">
          <mxGeometry x="570" y="-910" width="230" height="880" as="geometry" />
        </mxCell>
        <mxCell id="Ck3OJxmytHhcV2q8WUNJ-26" value="" style="endArrow=diamondThin;endFill=1;endSize=24;html=1;rounded=1;entryX=0;entryY=0.5;entryDx=0;entryDy=0;exitX=0.5;exitY=0;exitDx=0;exitDy=0;edgeStyle=orthogonalEdgeStyle;" parent="WIyWlLk6GJQsqaUBKTNV-1" source="kNCaPJdA75GjF8ZYcJyq-0" target="Ck3OJxmytHhcV2q8WUNJ-25" edge="1">
          <mxGeometry width="160" relative="1" as="geometry">
            <mxPoint x="454.5" y="110" as="sourcePoint" />
            <mxPoint x="454.5" y="-80" as="targetPoint" />
          </mxGeometry>
        </mxCell>
        <mxCell id="Ck3OJxmytHhcV2q8WUNJ-27" value="&lt;font style=&quot;font-size: 24px;&quot;&gt;*&lt;/font&gt;" style="text;html=1;align=center;verticalAlign=middle;resizable=0;points=[];autosize=1;strokeColor=none;fillColor=none;" parent="WIyWlLk6GJQsqaUBKTNV-1" vertex="1">
          <mxGeometry x="120" y="210" width="30" height="40" as="geometry" />
        </mxCell>
        <mxCell id="Ck3OJxmytHhcV2q8WUNJ-28" value="" style="endArrow=diamondThin;endFill=1;endSize=24;html=1;rounded=1;exitX=0.5;exitY=0;exitDx=0;exitDy=0;edgeStyle=orthogonalEdgeStyle;" parent="WIyWlLk6GJQsqaUBKTNV-1" source="kNCaPJdA75GjF8ZYcJyq-1" edge="1" target="Ck3OJxmytHhcV2q8WUNJ-25">
          <mxGeometry width="160" relative="1" as="geometry">
            <mxPoint x="120" y="285" as="sourcePoint" />
            <mxPoint x="587" y="-70" as="targetPoint" />
            <Array as="points">
              <mxPoint x="360" y="-70" />
            </Array>
          </mxGeometry>
        </mxCell>
        <mxCell id="Ck3OJxmytHhcV2q8WUNJ-29" value="&lt;font style=&quot;font-size: 24px;&quot;&gt;*&lt;/font&gt;" style="text;html=1;align=center;verticalAlign=middle;resizable=0;points=[];autosize=1;strokeColor=none;fillColor=none;" parent="WIyWlLk6GJQsqaUBKTNV-1" vertex="1">
          <mxGeometry x="360" y="210" width="30" height="40" as="geometry" />
        </mxCell>
        <mxCell id="Ck3OJxmytHhcV2q8WUNJ-30" value="" style="endArrow=diamondThin;endFill=1;endSize=24;html=1;rounded=1;exitX=0.5;exitY=0;exitDx=0;exitDy=0;edgeStyle=orthogonalEdgeStyle;entryX=0.5;entryY=1;entryDx=0;entryDy=0;" parent="WIyWlLk6GJQsqaUBKTNV-1" source="Ck3OJxmytHhcV2q8WUNJ-1" target="Ck3OJxmytHhcV2q8WUNJ-25" edge="1">
          <mxGeometry width="160" relative="1" as="geometry">
            <mxPoint x="370" y="250" as="sourcePoint" />
            <mxPoint x="670" as="targetPoint" />
            <Array as="points">
              <mxPoint x="600" y="200" />
              <mxPoint x="685" y="200" />
            </Array>
          </mxGeometry>
        </mxCell>
        <mxCell id="Ck3OJxmytHhcV2q8WUNJ-31" value="&lt;font style=&quot;font-size: 24px;&quot;&gt;*&lt;/font&gt;" style="text;html=1;align=center;verticalAlign=middle;resizable=0;points=[];autosize=1;strokeColor=none;fillColor=none;" parent="WIyWlLk6GJQsqaUBKTNV-1" vertex="1">
          <mxGeometry x="605" y="210" width="30" height="40" as="geometry" />
        </mxCell>
        <mxCell id="Ck3OJxmytHhcV2q8WUNJ-32" value="" style="endArrow=diamondThin;endFill=1;endSize=24;html=1;rounded=1;entryX=0.25;entryY=1;entryDx=0;entryDy=0;exitX=0.5;exitY=0;exitDx=0;exitDy=0;edgeStyle=orthogonalEdgeStyle;" parent="WIyWlLk6GJQsqaUBKTNV-1" source="Ck3OJxmytHhcV2q8WUNJ-2" edge="1">
          <mxGeometry width="160" relative="1" as="geometry">
            <mxPoint x="680" y="240" as="sourcePoint" />
            <mxPoint x="760" y="-30" as="targetPoint" />
            <Array as="points">
              <mxPoint x="840" y="200" />
              <mxPoint x="760" y="200" />
            </Array>
          </mxGeometry>
        </mxCell>
        <mxCell id="Ck3OJxmytHhcV2q8WUNJ-33" value="&lt;font style=&quot;font-size: 24px;&quot;&gt;*&lt;/font&gt;" style="text;html=1;align=center;verticalAlign=middle;resizable=0;points=[];autosize=1;strokeColor=none;fillColor=none;" parent="WIyWlLk6GJQsqaUBKTNV-1" vertex="1">
          <mxGeometry x="840" y="210" width="30" height="40" as="geometry" />
        </mxCell>
        <mxCell id="Ck3OJxmytHhcV2q8WUNJ-34" value="" style="endArrow=diamondThin;endFill=1;endSize=24;html=1;rounded=1;entryX=0.25;entryY=1;entryDx=0;entryDy=0;exitX=0.5;exitY=0;exitDx=0;exitDy=0;edgeStyle=orthogonalEdgeStyle;" parent="WIyWlLk6GJQsqaUBKTNV-1" source="Ck3OJxmytHhcV2q8WUNJ-3" edge="1">
          <mxGeometry width="160" relative="1" as="geometry">
            <mxPoint x="880" y="240" as="sourcePoint" />
            <mxPoint x="800" y="-30" as="targetPoint" />
            <Array as="points">
              <mxPoint x="1118" y="-30" />
            </Array>
          </mxGeometry>
        </mxCell>
        <mxCell id="Ck3OJxmytHhcV2q8WUNJ-35" value="&lt;font style=&quot;font-size: 24px;&quot;&gt;*&lt;/font&gt;" style="text;html=1;align=center;verticalAlign=middle;resizable=0;points=[];autosize=1;strokeColor=none;fillColor=none;" parent="WIyWlLk6GJQsqaUBKTNV-1" vertex="1">
          <mxGeometry x="1118" y="210" width="30" height="40" as="geometry" />
        </mxCell>
        <mxCell id="Ck3OJxmytHhcV2q8WUNJ-36" value="" style="endArrow=diamondThin;endFill=1;endSize=24;html=1;rounded=1;entryX=0.25;entryY=1;entryDx=0;entryDy=0;exitX=0.5;exitY=0;exitDx=0;exitDy=0;edgeStyle=orthogonalEdgeStyle;" parent="WIyWlLk6GJQsqaUBKTNV-1" source="Ck3OJxmytHhcV2q8WUNJ-4" edge="1">
          <mxGeometry width="160" relative="1" as="geometry">
            <mxPoint x="1080" y="190" as="sourcePoint" />
            <mxPoint x="800" y="-80" as="targetPoint" />
            <Array as="points">
              <mxPoint x="1400" y="-80" />
            </Array>
          </mxGeometry>
        </mxCell>
        <mxCell id="Ck3OJxmytHhcV2q8WUNJ-37" value="&lt;font style=&quot;font-size: 24px;&quot;&gt;*&lt;/font&gt;" style="text;html=1;align=center;verticalAlign=middle;resizable=0;points=[];autosize=1;strokeColor=none;fillColor=none;" parent="WIyWlLk6GJQsqaUBKTNV-1" vertex="1">
          <mxGeometry x="1400" y="210" width="30" height="40" as="geometry" />
        </mxCell>
        <mxCell id="sX47agzZfYIS_Kz9H4tk-1" value="ownedBySupermercado" style="text;html=1;align=center;verticalAlign=middle;resizable=0;points=[];autosize=1;strokeColor=none;fillColor=none;" parent="WIyWlLk6GJQsqaUBKTNV-1" vertex="1">
          <mxGeometry x="410" y="-90" width="150" height="30" as="geometry" />
        </mxCell>
        <mxCell id="sX47agzZfYIS_Kz9H4tk-2" value="ownedBySupermercado" style="text;html=1;align=center;verticalAlign=middle;resizable=0;points=[];autosize=1;strokeColor=none;fillColor=none;" parent="WIyWlLk6GJQsqaUBKTNV-1" vertex="1">
          <mxGeometry x="545" width="150" height="30" as="geometry" />
        </mxCell>
        <mxCell id="sX47agzZfYIS_Kz9H4tk-3" value="ownedBySupermercado" style="text;html=1;align=center;verticalAlign=middle;resizable=0;points=[];autosize=1;strokeColor=none;fillColor=none;" parent="WIyWlLk6GJQsqaUBKTNV-1" vertex="1">
          <mxGeometry x="760" y="-30" width="150" height="30" as="geometry" />
        </mxCell>
        <mxCell id="sX47agzZfYIS_Kz9H4tk-4" value="ownedBySupermercado" style="text;html=1;align=center;verticalAlign=middle;resizable=0;points=[];autosize=1;strokeColor=none;fillColor=none;" parent="WIyWlLk6GJQsqaUBKTNV-1" vertex="1">
          <mxGeometry x="800" y="-60" width="150" height="30" as="geometry" />
        </mxCell>
        <mxCell id="sX47agzZfYIS_Kz9H4tk-5" value="ownedBySupermercado" style="text;html=1;align=center;verticalAlign=middle;resizable=0;points=[];autosize=1;strokeColor=none;fillColor=none;" parent="WIyWlLk6GJQsqaUBKTNV-1" vertex="1">
          <mxGeometry x="800" y="-110" width="150" height="30" as="geometry" />
        </mxCell>
        <mxCell id="sX47agzZfYIS_Kz9H4tk-6" value="ownedByVenta" style="text;html=1;align=center;verticalAlign=middle;resizable=0;points=[];autosize=1;strokeColor=none;fillColor=none;" parent="WIyWlLk6GJQsqaUBKTNV-1" vertex="1">
          <mxGeometry x="355" y="420" width="100" height="30" as="geometry" />
        </mxCell>
        <mxCell id="sX47agzZfYIS_Kz9H4tk-7" value="listaClientes" style="text;html=1;align=center;verticalAlign=middle;resizable=0;points=[];autosize=1;strokeColor=none;fillColor=none;" parent="WIyWlLk6GJQsqaUBKTNV-1" vertex="1">
          <mxGeometry x="35" y="210" width="90" height="30" as="geometry" />
        </mxCell>
        <mxCell id="sX47agzZfYIS_Kz9H4tk-8" value="listaVentas" style="text;html=1;align=center;verticalAlign=middle;resizable=0;points=[];autosize=1;strokeColor=none;fillColor=none;" parent="WIyWlLk6GJQsqaUBKTNV-1" vertex="1">
          <mxGeometry x="280" y="210" width="80" height="30" as="geometry" />
        </mxCell>
        <mxCell id="sX47agzZfYIS_Kz9H4tk-9" value="listaEmpleados" style="text;html=1;align=center;verticalAlign=middle;resizable=0;points=[];autosize=1;strokeColor=none;fillColor=none;" parent="WIyWlLk6GJQsqaUBKTNV-1" vertex="1">
          <mxGeometry x="505" y="210" width="100" height="30" as="geometry" />
        </mxCell>
        <mxCell id="sX47agzZfYIS_Kz9H4tk-10" value="listaProductos" style="text;html=1;align=center;verticalAlign=middle;resizable=0;points=[];autosize=1;strokeColor=none;fillColor=none;" parent="WIyWlLk6GJQsqaUBKTNV-1" vertex="1">
          <mxGeometry x="745" y="210" width="100" height="30" as="geometry" />
        </mxCell>
        <mxCell id="sX47agzZfYIS_Kz9H4tk-11" value="listaCompraInsumos" style="text;html=1;align=center;verticalAlign=middle;resizable=0;points=[];autosize=1;strokeColor=none;fillColor=none;" parent="WIyWlLk6GJQsqaUBKTNV-1" vertex="1">
          <mxGeometry x="988" y="210" width="130" height="30" as="geometry" />
        </mxCell>
        <mxCell id="sX47agzZfYIS_Kz9H4tk-12" value="listaProveedores" style="text;html=1;align=center;verticalAlign=middle;resizable=0;points=[];autosize=1;strokeColor=none;fillColor=none;" parent="WIyWlLk6GJQsqaUBKTNV-1" vertex="1">
          <mxGeometry x="1290" y="210" width="110" height="30" as="geometry" />
        </mxCell>
        <mxCell id="sX47agzZfYIS_Kz9H4tk-13" value="listaDetalleVenta" style="text;html=1;align=center;verticalAlign=middle;resizable=0;points=[];autosize=1;strokeColor=none;fillColor=none;" parent="WIyWlLk6GJQsqaUBKTNV-1" vertex="1">
          <mxGeometry x="245" y="490" width="110" height="30" as="geometry" />
        </mxCell>
        <mxCell id="sX47agzZfYIS_Kz9H4tk-14" value="clienteAsociado" style="text;html=1;align=center;verticalAlign=middle;resizable=0;points=[];autosize=1;strokeColor=none;fillColor=none;" parent="WIyWlLk6GJQsqaUBKTNV-1" vertex="1">
          <mxGeometry x="10" y="360" width="110" height="30" as="geometry" />
        </mxCell>
        <mxCell id="sX47agzZfYIS_Kz9H4tk-15" value="listaVentasAsociadas" style="text;html=1;align=center;verticalAlign=middle;resizable=0;points=[];autosize=1;strokeColor=none;fillColor=none;" parent="WIyWlLk6GJQsqaUBKTNV-1" vertex="1">
          <mxGeometry x="170" y="400" width="140" height="30" as="geometry" />
        </mxCell>
        <mxCell id="sX47agzZfYIS_Kz9H4tk-16" value="empleadoAsociado" style="text;html=1;align=center;verticalAlign=middle;resizable=0;points=[];autosize=1;strokeColor=none;fillColor=none;" parent="WIyWlLk6GJQsqaUBKTNV-1" vertex="1">
          <mxGeometry x="499" y="410" width="130" height="30" as="geometry" />
        </mxCell>
        <mxCell id="sX47agzZfYIS_Kz9H4tk-17" value="listaVentasAsociadas" style="text;html=1;align=center;verticalAlign=middle;resizable=0;points=[];autosize=1;strokeColor=none;fillColor=none;" parent="WIyWlLk6GJQsqaUBKTNV-1" vertex="1">
          <mxGeometry x="365" y="395" width="140" height="30" as="geometry" />
        </mxCell>
        <mxCell id="sX47agzZfYIS_Kz9H4tk-18" value="listaDetallesAsociados" style="text;html=1;align=center;verticalAlign=middle;resizable=0;points=[];autosize=1;strokeColor=none;fillColor=none;" parent="WIyWlLk6GJQsqaUBKTNV-1" vertex="1">
          <mxGeometry x="440" y="570" width="140" height="30" as="geometry" />
        </mxCell>
        <mxCell id="sX47agzZfYIS_Kz9H4tk-19" value="productoAsociado" style="text;html=1;align=center;verticalAlign=middle;resizable=0;points=[];autosize=1;strokeColor=none;fillColor=none;" parent="WIyWlLk6GJQsqaUBKTNV-1" vertex="1">
          <mxGeometry x="670" y="388" width="120" height="30" as="geometry" />
        </mxCell>
        <mxCell id="sX47agzZfYIS_Kz9H4tk-23" value="listaCompraInsumosAsociados" style="text;html=1;align=center;verticalAlign=middle;resizable=0;points=[];autosize=1;strokeColor=none;fillColor=none;" parent="WIyWlLk6GJQsqaUBKTNV-1" vertex="1">
          <mxGeometry x="1090" y="430" width="190" height="30" as="geometry" />
        </mxCell>
        <mxCell id="sX47agzZfYIS_Kz9H4tk-24" value="proveedorAsociado" style="text;html=1;align=center;verticalAlign=middle;resizable=0;points=[];autosize=1;strokeColor=none;fillColor=none;" parent="WIyWlLk6GJQsqaUBKTNV-1" vertex="1">
          <mxGeometry x="1320" y="358" width="130" height="30" as="geometry" />
        </mxCell>
        <mxCell id="XZi6HHMwjH49y-VhssPX-13" style="edgeStyle=orthogonalEdgeStyle;rounded=0;orthogonalLoop=1;jettySize=auto;html=1;exitX=0;exitY=0.5;exitDx=0;exitDy=0;entryX=0.75;entryY=1;entryDx=0;entryDy=0;endArrow=none;endFill=0;" edge="1" parent="WIyWlLk6GJQsqaUBKTNV-1" source="XZi6HHMwjH49y-VhssPX-3" target="Ck3OJxmytHhcV2q8WUNJ-2">
          <mxGeometry relative="1" as="geometry" />
        </mxCell>
        <mxCell id="XZi6HHMwjH49y-VhssPX-3" value="&lt;p style=&quot;margin:0px;margin-top:4px;text-align:center;&quot;&gt;&lt;b&gt;DetalleCompra&lt;/b&gt;&lt;/p&gt;&lt;hr size=&quot;1&quot;&gt;&lt;p style=&quot;margin: 0px 0px 0px 4px; line-height: 150%;&quot;&gt;idDetalle&lt;/p&gt;&lt;p style=&quot;margin: 0px 0px 0px 4px; line-height: 150%;&quot;&gt;cantidad&lt;/p&gt;&lt;hr size=&quot;1&quot;&gt;&lt;p style=&quot;margin:0px;margin-left:4px;&quot;&gt;&lt;br&gt;&lt;/p&gt;" style="verticalAlign=top;align=left;overflow=fill;fontSize=12;fontFamily=Helvetica;html=1;whiteSpace=wrap;" vertex="1" parent="WIyWlLk6GJQsqaUBKTNV-1">
          <mxGeometry x="980" y="570" width="160" height="100" as="geometry" />
        </mxCell>
        <mxCell id="XZi6HHMwjH49y-VhssPX-4" value="&lt;font style=&quot;font-size: 24px;&quot;&gt;*&lt;/font&gt;" style="text;html=1;align=center;verticalAlign=middle;resizable=0;points=[];autosize=1;strokeColor=none;fillColor=none;" vertex="1" parent="WIyWlLk6GJQsqaUBKTNV-1">
          <mxGeometry x="1062" y="545" width="30" height="40" as="geometry" />
        </mxCell>
        <mxCell id="XZi6HHMwjH49y-VhssPX-5" value="&lt;font style=&quot;font-size: 24px;&quot;&gt;*&lt;/font&gt;" style="text;html=1;align=center;verticalAlign=middle;resizable=0;points=[];autosize=1;strokeColor=none;fillColor=none;" vertex="1" parent="WIyWlLk6GJQsqaUBKTNV-1">
          <mxGeometry x="950" y="590" width="30" height="40" as="geometry" />
        </mxCell>
        <mxCell id="XZi6HHMwjH49y-VhssPX-6" value="listaDetalleCompra" style="text;html=1;align=center;verticalAlign=middle;resizable=0;points=[];autosize=1;strokeColor=none;fillColor=none;" vertex="1" parent="WIyWlLk6GJQsqaUBKTNV-1">
          <mxGeometry x="948" y="545" width="120" height="30" as="geometry" />
        </mxCell>
        <mxCell id="XZi6HHMwjH49y-VhssPX-11" value="listaDetallesAsociados" style="text;html=1;align=center;verticalAlign=middle;resizable=0;points=[];autosize=1;strokeColor=none;fillColor=none;" vertex="1" parent="WIyWlLk6GJQsqaUBKTNV-1">
          <mxGeometry x="845" y="619" width="140" height="30" as="geometry" />
        </mxCell>
        <mxCell id="XZi6HHMwjH49y-VhssPX-12" value="" style="endArrow=diamondThin;endFill=1;endSize=24;html=1;rounded=0;entryX=0.5;entryY=1;entryDx=0;entryDy=0;exitX=0.5;exitY=0;exitDx=0;exitDy=0;" edge="1" parent="WIyWlLk6GJQsqaUBKTNV-1" source="XZi6HHMwjH49y-VhssPX-3">
          <mxGeometry width="160" relative="1" as="geometry">
            <mxPoint x="1060" y="620" as="sourcePoint" />
            <mxPoint x="1060" y="430" as="targetPoint" />
          </mxGeometry>
        </mxCell>
        <mxCell id="XZi6HHMwjH49y-VhssPX-15" value="productoAsociado" style="text;html=1;align=center;verticalAlign=middle;resizable=0;points=[];autosize=1;strokeColor=none;fillColor=none;" vertex="1" parent="WIyWlLk6GJQsqaUBKTNV-1">
          <mxGeometry x="870" y="388" width="120" height="30" as="geometry" />
        </mxCell>
        <mxCell id="XZi6HHMwjH49y-VhssPX-16" value="&lt;font style=&quot;font-size: 12px;&quot;&gt;1&lt;/font&gt;" style="text;html=1;align=center;verticalAlign=middle;resizable=0;points=[];autosize=1;strokeColor=none;fillColor=none;" vertex="1" parent="WIyWlLk6GJQsqaUBKTNV-1">
          <mxGeometry x="850" y="390" width="30" height="30" as="geometry" />
        </mxCell>
        <mxCell id="XZi6HHMwjH49y-VhssPX-17" value="ownedByCompraInsumos" style="text;html=1;align=center;verticalAlign=middle;resizable=0;points=[];autosize=1;strokeColor=none;fillColor=none;" vertex="1" parent="WIyWlLk6GJQsqaUBKTNV-1">
          <mxGeometry x="902" y="450" width="160" height="30" as="geometry" />
        </mxCell>
        <mxCell id="XZi6HHMwjH49y-VhssPX-18" value="listaComprasInsumosAsociadas" style="text;html=1;align=center;verticalAlign=middle;resizable=0;points=[];autosize=1;strokeColor=none;fillColor=none;" vertex="1" parent="WIyWlLk6GJQsqaUBKTNV-1">
          <mxGeometry x="872" y="430" width="190" height="30" as="geometry" />
        </mxCell>
        <mxCell id="XZi6HHMwjH49y-VhssPX-20" value="&lt;font style=&quot;font-size: 24px;&quot;&gt;*&lt;/font&gt;" style="text;html=1;align=center;verticalAlign=middle;resizable=0;points=[];autosize=1;strokeColor=none;fillColor=none;" vertex="1" parent="WIyWlLk6GJQsqaUBKTNV-1">
          <mxGeometry x="1008" y="400" width="30" height="40" as="geometry" />
        </mxCell>
        <mxCell id="XZi6HHMwjH49y-VhssPX-21" value="empleadoAsociado" style="text;html=1;align=center;verticalAlign=middle;resizable=0;points=[];autosize=1;strokeColor=none;fillColor=none;" vertex="1" parent="WIyWlLk6GJQsqaUBKTNV-1">
          <mxGeometry x="650" y="430" width="130" height="30" as="geometry" />
        </mxCell>
        <mxCell id="XZi6HHMwjH49y-VhssPX-22" value="&lt;font style=&quot;font-size: 12px;&quot;&gt;1&lt;/font&gt;" style="text;html=1;align=center;verticalAlign=middle;resizable=0;points=[];autosize=1;strokeColor=none;fillColor=none;" vertex="1" parent="WIyWlLk6GJQsqaUBKTNV-1">
          <mxGeometry x="680" y="405" width="30" height="30" as="geometry" />
        </mxCell>
        <mxCell id="XZi6HHMwjH49y-VhssPX-23" value="&lt;p style=&quot;margin:0px;margin-top:4px;text-align:center;&quot;&gt;&lt;b&gt;IVenta&lt;/b&gt;&lt;/p&gt;&lt;hr size=&quot;1&quot;&gt;&lt;p style=&quot;margin: 0px 0px 0px 4px; line-height: 150%;&quot;&gt;&lt;/p&gt;&lt;p style=&quot;margin:0px;margin-left:4px;&quot;&gt;crearDetalleVenta()&lt;br&gt;&lt;/p&gt;&lt;p style=&quot;margin:0px;margin-left:4px;&quot;&gt;eliminarDetalleVenta()&lt;br&gt;&lt;/p&gt;&lt;p style=&quot;margin:0px;margin-left:4px;&quot;&gt;calcularTotal()&lt;br&gt;&lt;/p&gt;" style="verticalAlign=top;align=left;overflow=fill;fontSize=12;fontFamily=Helvetica;html=1;whiteSpace=wrap;" vertex="1" parent="WIyWlLk6GJQsqaUBKTNV-1">
          <mxGeometry x="400" y="40" width="160" height="80" as="geometry" />
        </mxCell>
        <mxCell id="XZi6HHMwjH49y-VhssPX-25" value="&lt;p style=&quot;margin:0px;margin-top:4px;text-align:center;&quot;&gt;&lt;b&gt;ICompraInsumos&lt;/b&gt;&lt;/p&gt;&lt;hr size=&quot;1&quot;&gt;&lt;p style=&quot;margin: 0px 0px 0px 4px; line-height: 150%;&quot;&gt;&lt;/p&gt;&lt;p style=&quot;margin:0px;margin-left:4px;&quot;&gt;crearDetalleCompraInsumos()&lt;br&gt;&lt;/p&gt;&lt;p style=&quot;margin:0px;margin-left:4px;&quot;&gt;eliminarDetalleCompraInsumos()&lt;br&gt;&lt;/p&gt;&lt;p style=&quot;margin:0px;margin-left:4px;&quot;&gt;calcularTotal()&lt;br&gt;&lt;/p&gt;" style="verticalAlign=top;align=left;overflow=fill;fontSize=12;fontFamily=Helvetica;html=1;whiteSpace=wrap;" vertex="1" parent="WIyWlLk6GJQsqaUBKTNV-1">
          <mxGeometry x="1180" y="40" width="190" height="80" as="geometry" />
        </mxCell>
        <mxCell id="XZi6HHMwjH49y-VhssPX-27" value="ownedBySupermercado" style="text;html=1;align=center;verticalAlign=middle;resizable=0;points=[];autosize=1;strokeColor=none;fillColor=none;" vertex="1" parent="WIyWlLk6GJQsqaUBKTNV-1">
          <mxGeometry x="414" y="-491" width="150" height="30" as="geometry" />
        </mxCell>
      </root>
    </mxGraphModel>
  </diagram>
</mxfile>
